<?xml version="1.0" encoding="utf-8"?>
<!-- Generator: Adobe Illustrator 23.0.1, SVG Export Plug-In . SVG Version: 6.00 Build 0)  -->
<svg version="1.1" id="Layer_1" xmlns="http://www.w3.org/2000/svg" xmlns:xlink="http://www.w3.org/1999/xlink" x="0px" y="0px"
	 viewBox="0 0 24 24" style="enable-background:new 0 0 24 24;" xml:space="preserve">
<style type="text/css">
	.st0{fill:#2D2D2D;}
	.st1{fill:#FFFFFF;}
</style>
<circle class="st0" cx="12" cy="12" r="12"/>
<path class="st1" d="M19.6,13v-2c-1-0.4-1.7-0.5-2-1.3l0,0c-0.3-0.8,0.1-1.4,0.5-2.3L16.7,6c-1,0.5-1.5,0.9-2.3,0.5l0,0
	c-0.8-0.3-0.9-1-1.3-2h-2c-0.4,1-0.5,1.7-1.3,2l0,0C8.9,6.8,8.3,6.4,7.4,5.9L5.9,7.4c0.5,1,0.9,1.5,0.5,2.3c-0.3,0.8-1,0.9-2,1.3v2
	c1,0.4,1.7,0.5,2,1.3c0.3,0.8-0.1,1.4-0.5,2.3L7.3,18c1-0.5,1.5-0.9,2.3-0.5l0,0c0.8,0.3,0.9,1,1.3,2h2c0.4-1,0.5-1.7,1.3-2l0,0
	c0.8-0.3,1.3,0.1,2.3,0.5l1.4-1.4c-0.5-1-0.9-1.5-0.5-2.3C17.9,13.5,18.6,13.4,19.6,13z M12,14.5c-1.4,0-2.5-1.1-2.5-2.5
	s1.1-2.5,2.5-2.5s2.5,1.1,2.5,2.5S13.4,14.5,12,14.5z"/>
</svg>
