<?xml version="1.0" encoding="utf-8"?>
<!-- Generator: Adobe Illustrator 23.0.1, SVG Export Plug-In . SVG Version: 6.00 Build 0)  -->
<svg version="1.1" id="Layer_1" xmlns="http://www.w3.org/2000/svg" xmlns:xlink="http://www.w3.org/1999/xlink" x="0px" y="0px"
	 viewBox="0 0 24 24" style="enable-background:new 0 0 24 24;" xml:space="preserve">
<style type="text/css">
	.st0{fill:#3D3D3D;}
</style>
<path class="st0" d="M23.9,13.5v-3.1c-1.5-0.7-2.7-0.8-3.1-2.1l0,0c-0.4-1.3,0.1-2.2,0.8-3.6l-2.2-2.2C17.9,3.3,17,4,15.8,3.3l0,0
	c-1.3-0.4-1.4-1.5-2.1-3.1h-3.1C9.9,1.8,9.8,2.9,8.5,3.4l0,0c-1.4,0.4-2.3-0.2-3.7-1L2.4,4.8c0.8,1.5,1.4,2.4,0.8,3.6
	c-0.4,1.2-1.5,1.4-3.1,2.1v3.1c1.5,0.7,2.7,0.8,3.1,2.1s-0.1,2.2-0.8,3.6l2.2,2.2C6.1,20.7,7,20,8.2,20.7l0,0
	c1.3,0.4,1.4,1.5,2.1,3.1h3.1c0.7-1.5,0.8-2.7,2.1-3.1l0,0c1.3-0.4,2.1,0.1,3.6,0.8l2.2-2.2c-0.8-1.5-1.4-2.4-0.8-3.6
	C21.2,14.4,22.3,14.2,23.9,13.5z M12,15.9c-2.2,0-3.9-1.7-3.9-3.9S9.8,8.1,12,8.1s3.9,1.7,3.9,3.9S14.2,15.9,12,15.9z"/>
</svg>
