<?xml version="1.0" encoding="utf-8"?>
<!-- Generator: Adobe Illustrator 23.0.1, SVG Export Plug-In . SVG Version: 6.00 Build 0)  -->
<svg version="1.1" id="Layer_1" xmlns="http://www.w3.org/2000/svg" xmlns:xlink="http://www.w3.org/1999/xlink" x="0px" y="0px"
	 viewBox="0 0 24 24" style="enable-background:new 0 0 24 24;" xml:space="preserve">
<style type="text/css">
	.st0{fill:#2D2D2D;}
</style>
<path class="st0" d="M23,13.4v-2.9c-1.4-0.6-2.5-0.7-2.9-1.9l0,0c-0.4-1.2,0.1-2,0.7-3.3l-2-2c-1.4,0.7-2.2,1.3-3.3,0.7l0,0
	c-1.2-0.4-1.3-1.4-1.9-2.9h-2.9C10.1,2.6,10,3.6,8.8,4.1l0,0C7.5,4.5,6.7,3.9,5.4,3.2L3.2,5.4c0.7,1.4,1.3,2.2,0.7,3.3
	C3.5,9.8,2.5,10,1,10.6v2.9c1.4,0.6,2.5,0.7,2.9,1.9c0.4,1.2-0.1,2-0.7,3.3l2,2c1.4-0.7,2.2-1.3,3.3-0.7l0,0
	c1.2,0.4,1.3,1.4,1.9,2.9h2.9c0.6-1.4,0.7-2.5,1.9-2.9l0,0c1.2-0.4,1.9,0.1,3.3,0.7l2-2c-0.7-1.4-1.3-2.2-0.7-3.3
	C20.5,14.2,21.5,14,23,13.4z M12,15.6c-2,0-3.6-1.6-3.6-3.6S10,8.4,12,8.4s3.6,1.6,3.6,3.6S14,15.6,12,15.6z"/>
</svg>
